<svg xmlns="http://www.w3.org/2000/svg" viewBox="0 0 1824 1459" width="1824" height="1459" role="img" aria-label="Lamar">
  <title>Lamar</title>
  <g transform="translate(40.000 40.000)" fill="#C7C7C5" fill-rule="evenodd">
    <g transform="translate(0,1920) scale(0.1,-0.1)">
      <path d="M1763 13785 c-20 -23 -15 -68 11 -96 13 -14 59 -75 102 -135 85 -119
83 -116 117 -159 13 -16 44 -59 68 -95 24 -36 47 -69 51 -75 56 -72 173 -235
181 -252 6 -13 14 -23 18 -23 4 0 10 -8 13 -17 3 -10 17 -31 31 -47 14 -16 25
-32 25 -35 0 -3 14 -22 30 -41 17 -19 33 -43 36 -52 3 -10 9 -18 14 -18 5 0
11 -8 14 -17 3 -10 19 -34 36 -53 16 -19 30 -38 30 -41 0 -3 12 -22 28 -41 15
-20 34 -46 42 -58 8 -12 22 -32 31 -44 9 -11 38 -52 64 -91 26 -38 54 -75 61
-83 8 -7 14 -17 14 -21 0 -4 8 -16 18 -27 9 -10 42 -53 72 -94 30 -41 57 -77
61 -80 3 -3 29 -39 58 -80 28 -41 87 -124 131 -185 44 -60 94 -131 112 -157
18 -27 41 -58 51 -69 9 -12 17 -25 17 -29 0 -3 8 -15 19 -26 10 -11 38 -49 62
-85 24 -35 49 -70 56 -77 7 -8 18 -23 24 -35 10 -17 37 -55 147 -202 4 -5 28
-39 52 -75 25 -36 47 -67 50 -70 16 -16 110 -152 110 -159 0 -5 3 -11 8 -13 4
-1 32 -37 62 -78 30 -41 57 -77 60 -80 3 -3 25 -34 49 -70 24 -36 47 -67 50
-70 4 -3 38 -50 75 -104 38 -55 72 -104 77 -110 5 -6 27 -36 48 -66 22 -30 44
-60 49 -66 5 -5 14 -20 21 -31 6 -12 17 -27 24 -35 7 -7 29 -38 49 -69 21 -31
53 -75 72 -97 19 -23 45 -59 57 -79 13 -21 27 -42 31 -48 21 -26 222 -312 245
-348 14 -22 34 -49 44 -60 10 -12 21 -29 25 -39 3 -10 9 -18 14 -18 5 0 11 -8
14 -18 4 -10 14 -27 24 -38 9 -10 45 -62 80 -114 67 -101 82 -123 107 -155 76
-100 98 -130 146 -200 30 -44 60 -86 67 -93 15 -16 83 -115 127 -184 17 -26
88 -127 158 -224 71 -98 132 -184 135 -193 5 -14 24 -39 48 -65 6 -6 30 -40
55 -76 24 -36 49 -72 56 -80 11 -14 35 -47 155 -220 28 -41 57 -79 64 -85 6
-5 28 -35 48 -65 39 -60 99 -146 120 -171 7 -9 33 -45 57 -80 24 -35 47 -66
50 -69 4 -3 21 -30 40 -60 18 -30 37 -59 41 -65 42 -53 68 -89 68 -94 0 -4 8
-16 19 -27 10 -11 38 -49 62 -85 24 -35 48 -69 54 -75 6 -6 28 -37 50 -70 22
-32 43 -61 46 -64 3 -3 43 -57 87 -120 45 -63 89 -126 99 -139 10 -13 55 -76
100 -140 45 -64 85 -121 90 -126 49 -60 193 -273 193 -285 0 -5 4 -10 8 -12 8
-3 109 -139 173 -233 20 -29 41 -59 48 -66 35 -42 91 -118 91 -124 0 -15 46
-44 70 -45 14 0 44 9 65 21 22 11 76 34 120 50 43 17 84 34 90 38 5 4 26 14
45 21 38 14 93 38 185 80 33 15 71 31 85 35 14 4 48 18 75 31 28 13 112 48
187 78 75 30 162 66 193 81 31 14 58 25 61 25 3 0 35 14 72 31 87 41 283 119
300 119 6 0 12 4 12 9 0 5 12 12 27 16 15 3 45 15 67 26 23 11 77 34 121 50
44 16 95 36 112 45 18 8 61 25 95 39 35 13 77 30 93 38 17 8 46 22 65 30 19 8
60 26 90 40 30 14 105 44 165 67 99 38 154 61 250 105 17 8 62 26 100 40 39
15 76 31 83 37 26 22 11 79 -32 123 -11 12 -34 39 -51 60 -16 21 -35 43 -40
49 -6 6 -37 45 -70 86 -59 74 -84 104 -180 215 -27 32 -60 73 -73 92 -12 18
-26 33 -30 33 -4 0 -18 17 -32 37 -14 20 -30 41 -35 47 -6 6 -26 31 -45 56
-19 25 -44 54 -55 66 -28 29 -78 89 -101 120 -10 14 -23 31 -29 38 -5 6 -37
45 -70 86 -57 72 -206 250 -264 316 -16 17 -41 49 -57 70 -16 21 -36 48 -46
59 -9 11 -59 73 -112 138 -122 149 -129 157 -141 171 -6 6 -39 45 -73 86 -35
41 -80 95 -100 119 -60 71 -74 89 -203 251 -68 85 -126 157 -129 160 -3 3 -21
25 -40 50 -41 53 -61 78 -75 94 -14 15 -159 196 -210 262 -46 60 -204 254
-219 270 -6 7 -20 24 -31 40 -23 32 -69 88 -134 163 -25 30 -52 64 -60 75 -8
12 -18 23 -21 26 -3 3 -19 23 -36 45 -16 22 -33 45 -39 51 -49 54 -113 131
-125 150 -9 12 -33 42 -55 66 -22 24 -60 68 -84 98 -25 30 -55 66 -67 80 -30
33 -116 138 -182 223 -57 71 -104 91 -119 50 -9 -24 -104 -157 -115 -161 -4
-2 -8 -9 -8 -16 0 -7 -20 -40 -45 -74 -25 -34 -45 -64 -45 -67 0 -3 -5 -11
-10 -18 -6 -7 -31 -39 -56 -72 -25 -33 -57 -75 -71 -92 l-25 -33 -184 0 -184
0 0 29 c0 16 6 36 13 43 18 20 57 76 57 83 0 7 52 87 68 103 7 8 20 28 29 45
9 18 36 64 61 102 67 104 169 261 221 339 70 108 184 214 273 255 49 22 152
29 186 12 9 -5 44 -22 77 -37 181 -86 690 -555 990 -913 17 -19 48 -56 70 -80
82 -93 135 -157 135 -165 0 -5 32 -45 66 -80 14 -16 80 -107 149 -206 129
-187 145 -212 145 -220 0 -4 3 -10 8 -12 4 -1 32 -43 62 -93 30 -49 58 -91 62
-93 4 -2 8 -8 8 -12 0 -5 25 -51 55 -103 30 -51 55 -99 55 -105 0 -5 3 -12 8
-14 10 -4 152 -290 152 -305 0 -7 4 -13 9 -13 5 0 12 -11 15 -25 12 -46 123
-270 147 -295 68 -71 167 -87 261 -42 26 12 52 22 58 22 5 0 10 5 10 10 0 6 5
10 11 10 38 0 317 195 412 288 79 78 177 200 177 221 0 6 4 11 8 11 15 0 69
134 82 203 13 70 8 217 -10 260 -5 12 -20 61 -35 109 -15 49 -30 90 -34 93 -5
2 -16 26 -26 52 -33 86 -263 453 -408 653 -64 88 -79 109 -97 135 -13 20 -111
143 -159 200 -9 11 -46 58 -83 105 -37 47 -82 101 -100 121 -18 20 -53 60 -78
89 -122 144 -228 258 -405 433 -197 196 -352 340 -411 382 -15 11 -38 30 -50
43 -13 12 -25 22 -28 22 -5 0 -30 19 -60 45 -40 36 -147 115 -156 115 -5 0
-10 3 -10 8 0 4 -17 18 -38 32 -20 14 -39 28 -42 31 -7 8 -199 132 -240 155
-19 10 -36 22 -38 27 -2 4 -10 7 -17 7 -7 0 -15 4 -17 8 -4 11 -143 92 -157
92 -6 0 -11 5 -11 10 0 6 -6 10 -14 10 -14 0 -97 40 -106 51 -3 3 -29 12 -57
19 -29 8 -53 17 -53 21 0 10 -64 20 -179 26 -181 9 -236 -22 -382 -215 -41
-53 -79 -103 -86 -112 -7 -8 -61 -80 -120 -160 -59 -80 -110 -147 -113 -150
-3 -3 -28 -38 -55 -78 -27 -39 -57 -81 -67 -92 -10 -10 -18 -22 -18 -25 0 -3
-12 -22 -27 -41 -50 -62 -73 -51 -194 101 -19 23 -139 165 -154 181 -5 7 -19
24 -29 39 -11 14 -28 36 -38 48 -11 12 -38 44 -61 71 -23 27 -52 60 -64 74
-13 14 -23 28 -23 31 0 3 -15 22 -33 42 -17 19 -43 50 -57 69 -14 18 -32 40
-41 49 -9 9 -36 41 -60 71 -51 63 -79 97 -94 114 -6 6 -53 63 -105 126 -109
132 -131 158 -145 174 -6 6 -48 58 -94 115 -46 58 -95 116 -108 128 -12 13
-23 27 -23 32 0 4 -27 35 -60 68 -65 67 -77 72 -245 98 -49 8 -112 19 -140 24
-27 5 -90 16 -140 25 -49 10 -124 21 -165 26 -41 5 -160 23 -265 40 -104 17
-245 39 -312 50 -67 10 -146 23 -175 29 -29 6 -91 16 -138 22 -47 6 -89 15
-95 19 -5 4 -39 10 -75 14 -72 7 -346 50 -625 97 -99 17 -268 44 -375 60 -107
15 -224 35 -260 44 -146 34 -258 42 -277 20z"/>
    </g>
  </g>
  <g transform="translate(40.000 40.000)" fill="#7BCBD3" fill-rule="evenodd">
    <g transform="translate(0,1920) scale(0.1,-0.1)">
      <path d="M8622 12687 c-30 -36 -26 -95 8 -124 94 -79 164 -142 245 -221 50
-48 138 -128 195 -179 140 -123 184 -163 217 -196 16 -16 50 -49 77 -75 116
-113 255 -253 306 -310 30 -34 60 -62 66 -62 7 0 20 -12 29 -27 10 -16 32 -44
51 -63 62 -66 160 -175 194 -216 19 -23 51 -60 70 -83 19 -23 68 -76 108 -118
39 -41 72 -80 72 -84 0 -5 19 -30 43 -57 23 -27 53 -64 67 -82 14 -18 35 -44
48 -59 19 -22 94 -122 162 -217 111 -155 247 -387 304 -514 16 -36 32 -72 36
-81 62 -124 136 -474 125 -592 -20 -222 -40 -313 -90 -422 -13 -27 -40 -84
-59 -127 -19 -42 -40 -79 -46 -83 -6 -3 -19 -23 -30 -43 -11 -20 -43 -64 -70
-97 -27 -33 -71 -87 -96 -120 -26 -33 -78 -90 -116 -127 -79 -78 -88 -110 -40
-157 34 -35 66 -73 117 -141 22 -30 58 -74 81 -99 23 -25 43 -51 45 -58 4 -12
150 -189 206 -250 18 -20 35 -44 38 -54 4 -11 10 -19 15 -19 5 0 22 -17 37
-39 15 -21 52 -67 81 -102 30 -35 68 -81 85 -103 18 -21 45 -52 60 -68 15 -17
34 -42 42 -57 7 -14 46 -59 85 -100 69 -72 71 -73 113 -69 41 5 220 70 243 89
6 5 42 20 80 33 91 31 141 54 148 65 3 5 29 16 58 26 29 9 73 26 98 37 25 11
61 27 80 35 19 9 58 26 85 38 28 13 68 29 90 35 57 18 55 17 110 49 28 16 58
30 68 30 9 1 41 14 70 30 52 30 205 96 307 133 30 11 62 26 70 33 8 7 42 23
75 35 33 11 96 37 140 57 44 19 94 41 110 47 17 7 50 22 75 33 186 84 228 102
250 108 14 4 40 15 58 26 18 10 63 30 100 44 37 15 99 41 137 59 39 19 93 42
120 51 28 10 55 22 60 25 15 11 270 120 279 120 5 0 43 16 85 36 190 91 287
134 301 134 4 0 46 18 91 40 46 22 89 40 96 40 7 0 36 13 65 29 29 15 64 32
78 36 14 4 62 25 107 46 45 22 85 39 89 39 4 0 53 20 108 44 56 24 126 54 156
66 30 12 62 28 70 35 8 7 26 16 40 20 14 3 39 13 55 20 121 56 167 75 178 75
7 0 22 7 33 15 12 8 48 24 80 36 33 11 88 36 124 54 36 18 76 36 90 40 30 9
173 72 285 125 44 20 125 57 180 80 55 24 127 56 160 71 33 15 86 37 117 49
31 11 72 31 90 44 19 12 43 25 53 29 53 16 116 41 169 68 33 16 65 29 72 29
21 0 54 50 54 82 0 48 -24 86 -140 224 -25 29 -62 74 -82 101 -64 82 -185 234
-261 327 -39 48 -83 105 -96 125 -13 20 -31 44 -40 53 -20 22 -26 29 -90 113
-30 39 -59 75 -66 80 -7 6 -23 26 -36 45 -13 20 -49 67 -81 105 -31 39 -87
108 -124 155 -37 47 -73 92 -81 100 -19 22 -79 99 -110 143 -16 21 -57 74 -93
117 -36 43 -85 103 -110 134 -25 31 -56 60 -70 66 -23 9 -240 49 -465 85 -49
8 -115 20 -145 26 -30 5 -98 17 -150 24 -52 8 -151 23 -220 35 -69 11 -152 25
-185 30 -33 6 -116 19 -185 30 -198 33 -227 37 -370 59 -74 12 -211 35 -305
51 -366 63 -412 71 -475 80 -36 5 -108 16 -160 25 -52 8 -135 22 -185 30 -213
34 -358 58 -480 80 -71 13 -175 30 -230 39 -195 29 -561 87 -645 102 -47 8
-101 17 -120 20 -19 3 -102 16 -185 29 -82 13 -232 36 -331 50 -100 14 -195
29 -211 34 -16 5 -59 12 -94 16 -35 4 -91 13 -124 20 -33 8 -114 21 -180 29
-66 9 -138 21 -160 26 -22 6 -69 14 -105 19 -89 11 -432 67 -563 92 -59 11
-197 33 -306 49 -175 25 -285 43 -628 105 -100 18 -118 19 -131 2z"/>
    </g>
  </g>
</svg>
