<svg xmlns="http://www.w3.org/2000/svg" viewBox="0 0 4792.4 1539.0" width="4792" height="1539" role="img" aria-label="Lamar Stukadoor en Onderhoud">
  <title>Lamar Stukadoor en Onderhoud</title>
  <g transform="translate(80.000 80.000) scale(1.000000)" fill="#C7C7C5" fill-rule="evenodd">
    <g transform="translate(0,1920) scale(0.1,-0.1)">
      <path d="M1763 13785 c-20 -23 -15 -68 11 -96 13 -14 59 -75 102 -135 85 -119
83 -116 117 -159 13 -16 44 -59 68 -95 24 -36 47 -69 51 -75 56 -72 173 -235
181 -252 6 -13 14 -23 18 -23 4 0 10 -8 13 -17 3 -10 17 -31 31 -47 14 -16 25
-32 25 -35 0 -3 14 -22 30 -41 17 -19 33 -43 36 -52 3 -10 9 -18 14 -18 5 0
11 -8 14 -17 3 -10 19 -34 36 -53 16 -19 30 -38 30 -41 0 -3 12 -22 28 -41 15
-20 34 -46 42 -58 8 -12 22 -32 31 -44 9 -11 38 -52 64 -91 26 -38 54 -75 61
-83 8 -7 14 -17 14 -21 0 -4 8 -16 18 -27 9 -10 42 -53 72 -94 30 -41 57 -77
61 -80 3 -3 29 -39 58 -80 28 -41 87 -124 131 -185 44 -60 94 -131 112 -157
18 -27 41 -58 51 -69 9 -12 17 -25 17 -29 0 -3 8 -15 19 -26 10 -11 38 -49 62
-85 24 -35 49 -70 56 -77 7 -8 18 -23 24 -35 10 -17 37 -55 147 -202 4 -5 28
-39 52 -75 25 -36 47 -67 50 -70 16 -16 110 -152 110 -159 0 -5 3 -11 8 -13 4
-1 32 -37 62 -78 30 -41 57 -77 60 -80 3 -3 25 -34 49 -70 24 -36 47 -67 50
-70 4 -3 38 -50 75 -104 38 -55 72 -104 77 -110 5 -6 27 -36 48 -66 22 -30 44
-60 49 -66 5 -5 14 -20 21 -31 6 -12 17 -27 24 -35 7 -7 29 -38 49 -69 21 -31
53 -75 72 -97 19 -23 45 -59 57 -79 13 -21 27 -42 31 -48 21 -26 222 -312 245
-348 14 -22 34 -49 44 -60 10 -12 21 -29 25 -39 3 -10 9 -18 14 -18 5 0 11 -8
14 -18 4 -10 14 -27 24 -38 9 -10 45 -62 80 -114 67 -101 82 -123 107 -155 76
-100 98 -130 146 -200 30 -44 60 -86 67 -93 15 -16 83 -115 127 -184 17 -26
88 -127 158 -224 71 -98 132 -184 135 -193 5 -14 24 -39 48 -65 6 -6 30 -40
55 -76 24 -36 49 -72 56 -80 11 -14 35 -47 155 -220 28 -41 57 -79 64 -85 6
-5 28 -35 48 -65 39 -60 99 -146 120 -171 7 -9 33 -45 57 -80 24 -35 47 -66
50 -69 4 -3 21 -30 40 -60 18 -30 37 -59 41 -65 42 -53 68 -89 68 -94 0 -4 8
-16 19 -27 10 -11 38 -49 62 -85 24 -35 48 -69 54 -75 6 -6 28 -37 50 -70 22
-32 43 -61 46 -64 3 -3 43 -57 87 -120 45 -63 89 -126 99 -139 10 -13 55 -76
100 -140 45 -64 85 -121 90 -126 49 -60 193 -273 193 -285 0 -5 4 -10 8 -12 8
-3 109 -139 173 -233 20 -29 41 -59 48 -66 35 -42 91 -118 91 -124 0 -15 46
-44 70 -45 14 0 44 9 65 21 22 11 76 34 120 50 43 17 84 34 90 38 5 4 26 14
45 21 38 14 93 38 185 80 33 15 71 31 85 35 14 4 48 18 75 31 28 13 112 48
187 78 75 30 162 66 193 81 31 14 58 25 61 25 3 0 35 14 72 31 87 41 283 119
300 119 6 0 12 4 12 9 0 5 12 12 27 16 15 3 45 15 67 26 23 11 77 34 121 50
44 16 95 36 112 45 18 8 61 25 95 39 35 13 77 30 93 38 17 8 46 22 65 30 19 8
60 26 90 40 30 14 105 44 165 67 99 38 154 61 250 105 17 8 62 26 100 40 39
15 76 31 83 37 26 22 11 79 -32 123 -11 12 -34 39 -51 60 -16 21 -35 43 -40
49 -6 6 -37 45 -70 86 -59 74 -84 104 -180 215 -27 32 -60 73 -73 92 -12 18
-26 33 -30 33 -4 0 -18 17 -32 37 -14 20 -30 41 -35 47 -6 6 -26 31 -45 56
-19 25 -44 54 -55 66 -28 29 -78 89 -101 120 -10 14 -23 31 -29 38 -5 6 -37
45 -70 86 -57 72 -206 250 -264 316 -16 17 -41 49 -57 70 -16 21 -36 48 -46
59 -9 11 -59 73 -112 138 -122 149 -129 157 -141 171 -6 6 -39 45 -73 86 -35
41 -80 95 -100 119 -60 71 -74 89 -203 251 -68 85 -126 157 -129 160 -3 3 -21
25 -40 50 -41 53 -61 78 -75 94 -14 15 -159 196 -210 262 -46 60 -204 254
-219 270 -6 7 -20 24 -31 40 -23 32 -69 88 -134 163 -25 30 -52 64 -60 75 -8
12 -18 23 -21 26 -3 3 -19 23 -36 45 -16 22 -33 45 -39 51 -49 54 -113 131
-125 150 -9 12 -33 42 -55 66 -22 24 -60 68 -84 98 -25 30 -55 66 -67 80 -30
33 -116 138 -182 223 -57 71 -104 91 -119 50 -9 -24 -104 -157 -115 -161 -4
-2 -8 -9 -8 -16 0 -7 -20 -40 -45 -74 -25 -34 -45 -64 -45 -67 0 -3 -5 -11
-10 -18 -6 -7 -31 -39 -56 -72 -25 -33 -57 -75 -71 -92 l-25 -33 -184 0 -184
0 0 29 c0 16 6 36 13 43 18 20 57 76 57 83 0 7 52 87 68 103 7 8 20 28 29 45
9 18 36 64 61 102 67 104 169 261 221 339 70 108 184 214 273 255 49 22 152
29 186 12 9 -5 44 -22 77 -37 181 -86 690 -555 990 -913 17 -19 48 -56 70 -80
82 -93 135 -157 135 -165 0 -5 32 -45 66 -80 14 -16 80 -107 149 -206 129
-187 145 -212 145 -220 0 -4 3 -10 8 -12 4 -1 32 -43 62 -93 30 -49 58 -91 62
-93 4 -2 8 -8 8 -12 0 -5 25 -51 55 -103 30 -51 55 -99 55 -105 0 -5 3 -12 8
-14 10 -4 152 -290 152 -305 0 -7 4 -13 9 -13 5 0 12 -11 15 -25 12 -46 123
-270 147 -295 68 -71 167 -87 261 -42 26 12 52 22 58 22 5 0 10 5 10 10 0 6 5
10 11 10 38 0 317 195 412 288 79 78 177 200 177 221 0 6 4 11 8 11 15 0 69
134 82 203 13 70 8 217 -10 260 -5 12 -20 61 -35 109 -15 49 -30 90 -34 93 -5
2 -16 26 -26 52 -33 86 -263 453 -408 653 -64 88 -79 109 -97 135 -13 20 -111
143 -159 200 -9 11 -46 58 -83 105 -37 47 -82 101 -100 121 -18 20 -53 60 -78
89 -122 144 -228 258 -405 433 -197 196 -352 340 -411 382 -15 11 -38 30 -50
43 -13 12 -25 22 -28 22 -5 0 -30 19 -60 45 -40 36 -147 115 -156 115 -5 0
-10 3 -10 8 0 4 -17 18 -38 32 -20 14 -39 28 -42 31 -7 8 -199 132 -240 155
-19 10 -36 22 -38 27 -2 4 -10 7 -17 7 -7 0 -15 4 -17 8 -4 11 -143 92 -157
92 -6 0 -11 5 -11 10 0 6 -6 10 -14 10 -14 0 -97 40 -106 51 -3 3 -29 12 -57
19 -29 8 -53 17 -53 21 0 10 -64 20 -179 26 -181 9 -236 -22 -382 -215 -41
-53 -79 -103 -86 -112 -7 -8 -61 -80 -120 -160 -59 -80 -110 -147 -113 -150
-3 -3 -28 -38 -55 -78 -27 -39 -57 -81 -67 -92 -10 -10 -18 -22 -18 -25 0 -3
-12 -22 -27 -41 -50 -62 -73 -51 -194 101 -19 23 -139 165 -154 181 -5 7 -19
24 -29 39 -11 14 -28 36 -38 48 -11 12 -38 44 -61 71 -23 27 -52 60 -64 74
-13 14 -23 28 -23 31 0 3 -15 22 -33 42 -17 19 -43 50 -57 69 -14 18 -32 40
-41 49 -9 9 -36 41 -60 71 -51 63 -79 97 -94 114 -6 6 -53 63 -105 126 -109
132 -131 158 -145 174 -6 6 -48 58 -94 115 -46 58 -95 116 -108 128 -12 13
-23 27 -23 32 0 4 -27 35 -60 68 -65 67 -77 72 -245 98 -49 8 -112 19 -140 24
-27 5 -90 16 -140 25 -49 10 -124 21 -165 26 -41 5 -160 23 -265 40 -104 17
-245 39 -312 50 -67 10 -146 23 -175 29 -29 6 -91 16 -138 22 -47 6 -89 15
-95 19 -5 4 -39 10 -75 14 -72 7 -346 50 -625 97 -99 17 -268 44 -375 60 -107
15 -224 35 -260 44 -146 34 -258 42 -277 20z"/>
    </g>
  </g>
  <g transform="translate(80.000 80.000) scale(1.000000)" fill="#7BCBD3" fill-rule="evenodd">
    <g transform="translate(0,1920) scale(0.1,-0.1)">
      <path d="M8622 12687 c-30 -36 -26 -95 8 -124 94 -79 164 -142 245 -221 50
-48 138 -128 195 -179 140 -123 184 -163 217 -196 16 -16 50 -49 77 -75 116
-113 255 -253 306 -310 30 -34 60 -62 66 -62 7 0 20 -12 29 -27 10 -16 32 -44
51 -63 62 -66 160 -175 194 -216 19 -23 51 -60 70 -83 19 -23 68 -76 108 -118
39 -41 72 -80 72 -84 0 -5 19 -30 43 -57 23 -27 53 -64 67 -82 14 -18 35 -44
48 -59 19 -22 94 -122 162 -217 111 -155 247 -387 304 -514 16 -36 32 -72 36
-81 62 -124 136 -474 125 -592 -20 -222 -40 -313 -90 -422 -13 -27 -40 -84
-59 -127 -19 -42 -40 -79 -46 -83 -6 -3 -19 -23 -30 -43 -11 -20 -43 -64 -70
-97 -27 -33 -71 -87 -96 -120 -26 -33 -78 -90 -116 -127 -79 -78 -88 -110 -40
-157 34 -35 66 -73 117 -141 22 -30 58 -74 81 -99 23 -25 43 -51 45 -58 4 -12
150 -189 206 -250 18 -20 35 -44 38 -54 4 -11 10 -19 15 -19 5 0 22 -17 37
-39 15 -21 52 -67 81 -102 30 -35 68 -81 85 -103 18 -21 45 -52 60 -68 15 -17
34 -42 42 -57 7 -14 46 -59 85 -100 69 -72 71 -73 113 -69 41 5 220 70 243 89
6 5 42 20 80 33 91 31 141 54 148 65 3 5 29 16 58 26 29 9 73 26 98 37 25 11
61 27 80 35 19 9 58 26 85 38 28 13 68 29 90 35 57 18 55 17 110 49 28 16 58
30 68 30 9 1 41 14 70 30 52 30 205 96 307 133 30 11 62 26 70 33 8 7 42 23
75 35 33 11 96 37 140 57 44 19 94 41 110 47 17 7 50 22 75 33 186 84 228 102
250 108 14 4 40 15 58 26 18 10 63 30 100 44 37 15 99 41 137 59 39 19 93 42
120 51 28 10 55 22 60 25 15 11 270 120 279 120 5 0 43 16 85 36 190 91 287
134 301 134 4 0 46 18 91 40 46 22 89 40 96 40 7 0 36 13 65 29 29 15 64 32
78 36 14 4 62 25 107 46 45 22 85 39 89 39 4 0 53 20 108 44 56 24 126 54 156
66 30 12 62 28 70 35 8 7 26 16 40 20 14 3 39 13 55 20 121 56 167 75 178 75
7 0 22 7 33 15 12 8 48 24 80 36 33 11 88 36 124 54 36 18 76 36 90 40 30 9
173 72 285 125 44 20 125 57 180 80 55 24 127 56 160 71 33 15 86 37 117 49
31 11 72 31 90 44 19 12 43 25 53 29 53 16 116 41 169 68 33 16 65 29 72 29
21 0 54 50 54 82 0 48 -24 86 -140 224 -25 29 -62 74 -82 101 -64 82 -185 234
-261 327 -39 48 -83 105 -96 125 -13 20 -31 44 -40 53 -20 22 -26 29 -90 113
-30 39 -59 75 -66 80 -7 6 -23 26 -36 45 -13 20 -49 67 -81 105 -31 39 -87
108 -124 155 -37 47 -73 92 -81 100 -19 22 -79 99 -110 143 -16 21 -57 74 -93
117 -36 43 -85 103 -110 134 -25 31 -56 60 -70 66 -23 9 -240 49 -465 85 -49
8 -115 20 -145 26 -30 5 -98 17 -150 24 -52 8 -151 23 -220 35 -69 11 -152 25
-185 30 -33 6 -116 19 -185 30 -198 33 -227 37 -370 59 -74 12 -211 35 -305
51 -366 63 -412 71 -475 80 -36 5 -108 16 -160 25 -52 8 -135 22 -185 30 -213
34 -358 58 -480 80 -71 13 -175 30 -230 39 -195 29 -561 87 -645 102 -47 8
-101 17 -120 20 -19 3 -102 16 -185 29 -82 13 -232 36 -331 50 -100 14 -195
29 -211 34 -16 5 -59 12 -94 16 -35 4 -91 13 -124 20 -33 8 -114 21 -180 29
-66 9 -138 21 -160 26 -22 6 -69 14 -105 19 -89 11 -432 67 -563 92 -59 11
-197 33 -306 49 -175 25 -285 43 -628 105 -100 18 -118 19 -131 2z"/>
    </g>
  </g>
  <g transform="translate(1562.096 -1006.383) scale(1.849878)" fill="#FFFFFF" fill-rule="evenodd">
    <g transform="translate(0,1920) scale(0.1,-0.1)">
      <path d="M4680 10490 l0 -1150 720 0 720 0 -2 268 -3 267 -437 3 -438 2 0 880
0 880 -280 0 -280 0 0 -1150z"/>
      <path d="M6860 11040 c-144 -39 -251 -101 -356 -205 -107 -108 -186 -243 -226
-388 -29 -106 -36 -337 -13 -448 66 -328 251 -555 532 -650 95 -33 103 -34
253 -33 145 0 160 2 230 28 117 45 218 118 276 199 l20 28 32 -45 c90 -125
223 -178 452 -180 l135 -1 0 260 0 260 -25 -2 c-38 -3 -95 25 -113 57 -15 25
-17 81 -17 569 l0 541 -260 0 -259 0 -3 -77 -3 -77 -40 37 c-51 48 -126 90
-206 117 -96 33 -306 38 -409 10z m432 -510 c77 -29 158 -104 188 -172 45
-106 43 -244 -6 -345 -95 -195 -377 -248 -547 -102 -62 53 -94 110 -113 200
-42 200 57 376 241 431 75 22 159 18 237 -12z"/>
      <path d="M9268 11050 c-115 -20 -236 -87 -289 -161 -11 -16 -25 -26 -30 -23
-6 3 -9 39 -7 82 l3 77 -263 3 -262 2 2 -842 3 -843 263 -3 262 -2 0 484 c0
313 4 503 11 536 14 64 61 127 119 159 65 36 178 41 248 11 59 -26 116 -84
134 -139 8 -25 13 -188 15 -543 l4 -508 259 0 259 0 3 513 3 513 33 54 c18 30
50 67 71 82 111 79 303 55 373 -48 49 -72 52 -97 53 -424 2 -331 5 -357 60
-459 16 -28 52 -73 80 -100 101 -95 190 -123 407 -125 81 0 148 2 148 7 0 4 0
119 0 256 l0 248 -46 6 c-26 2 -58 14 -73 24 l-26 20 -7 314 c-7 349 -15 405
-72 525 -46 96 -144 200 -235 248 -97 51 -195 69 -345 64 -192 -7 -291 -51
-427 -190 -37 -37 -71 -68 -75 -68 -5 1 -27 26 -49 57 -93 130 -264 204 -470
202 -49 -1 -111 -5 -137 -9z"/>
      <path d="M11970 11040 c-242 -71 -438 -251 -536 -490 -66 -161 -85 -433 -43
-596 51 -197 124 -326 254 -445 109 -100 252 -171 380 -190 240 -35 446 21
584 158 38 37 71 75 74 83 4 12 9 10 23 -10 105 -144 224 -196 470 -207 l134
-6 -2 264 c-3 217 -5 263 -17 261 -22 -5 -84 19 -108 41 l-23 20 0 554 0 553
-262 -2 -261 -3 -1 -72 c0 -40 -3 -73 -6 -73 -4 0 -15 10 -26 22 -32 36 -145
104 -214 128 -92 32 -324 38 -420 10z m400 -496 c68 -20 117 -51 175 -111 64
-66 90 -152 82 -269 -9 -144 -77 -246 -205 -306 -52 -25 -75 -30 -136 -30
-162 1 -265 60 -333 192 -26 51 -28 63 -28 170 1 102 3 120 24 160 90 168 253
244 421 194z"/>
      <path d="M14390 11036 c-47 -12 -109 -35 -138 -50 -61 -31 -140 -105 -168
-156 l-19 -35 -5 115 -5 115 -257 0 c-142 0 -258 -3 -258 -7 0 -5 0 -384 0
-843 l0 -835 260 0 260 0 0 399 c0 227 4 421 10 452 36 193 178 298 420 311
l45 3 0 275 0 275 -30 2 c-16 1 -68 -8 -115 -21z"/>
      <path d="M2338 8289 c-47 -14 -117 -74 -134 -116 -19 -44 -18 -128 3 -170 22
-48 88 -87 204 -123 113 -35 144 -57 153 -105 28 -146 -223 -190 -285 -49 -19
41 -22 44 -59 44 -39 0 -40 -1 -40 -35 0 -74 59 -142 149 -173 46 -16 164 -15
204 1 84 36 136 113 137 204 0 99 -54 152 -210 203 -137 44 -170 68 -170 125
0 65 54 109 135 110 65 0 101 -23 127 -82 l20 -44 41 6 c56 9 61 16 42 61 -24
58 -62 102 -106 125 -48 24 -156 33 -211 18z"/>
      <path d="M4939 8273 c-29 -77 -81 -206 -89 -221 -5 -9 -28 -69 -51 -132 -23
-63 -61 -168 -85 -234 -24 -65 -44 -120 -44 -122 0 -2 24 -4 53 -4 l53 0 18
58 c10 31 25 69 32 85 l15 27 170 0 170 0 20 -47 c58 -137 46 -123 105 -123
l54 0 -20 50 c-11 28 -29 74 -40 103 -12 28 -27 66 -35 82 -24 55 -63 150 -70
175 -6 19 -125 311 -129 316 -1 1 -27 4 -59 8 -56 6 -58 6 -68 -21z m85 -135
c8 -18 38 -91 66 -163 28 -71 54 -136 57 -142 4 -10 -27 -13 -137 -13 -131 0
-142 1 -135 18 3 9 19 53 34 97 16 44 40 107 53 140 14 33 28 68 31 78 9 24
14 22 31 -15z"/>
      <path d="M6475 8294 c-196 -50 -319 -235 -286 -430 36 -202 193 -326 396 -311
105 8 178 39 246 106 75 74 102 143 102 259 0 173 -85 304 -233 357 -45 17
-188 28 -225 19z m203 -120 c28 -14 69 -45 89 -68 114 -130 73 -353 -79 -432
-18 -9 -62 -19 -99 -22 -171 -12 -286 86 -297 253 -10 171 103 293 274 295 45
0 73 -6 112 -26z"/>
      <path d="M7288 8286 c-104 -28 -205 -123 -239 -224 -17 -52 -21 -81 -17 -160
3 -84 8 -104 33 -150 35 -65 105 -131 176 -168 49 -26 64 -28 159 -29 96 0
110 2 165 29 110 54 187 156 205 272 31 194 -66 363 -245 426 -59 20 -169 22
-237 4z m230 -112 c201 -100 200 -406 -3 -504 -46 -22 -136 -27 -197 -10 -52
15 -134 83 -159 133 -31 59 -38 172 -14 234 56 147 233 217 373 147z"/>
      <path d="M9391 7930 l1 -370 49 0 49 0 0 288 c1 251 2 285 15 267 8 -11 25
-36 39 -55 49 -69 232 -329 291 -414 l60 -86 53 0 52 0 0 366 0 365 -51 -3
-50 -3 1 -274 c1 -313 6 -303 -83 -171 -27 41 -111 158 -185 260 -75 102 -136
185 -136 186 -1 1 -25 4 -54 7 l-53 6 2 -369z"/>
      <path d="M10650 8286 c-62 -16 -108 -46 -164 -106 -76 -81 -91 -124 -91 -260
0 -101 3 -120 24 -160 41 -79 86 -125 163 -166 72 -39 74 -39 183 -39 95 0
116 3 157 23 75 37 143 105 180 180 31 62 33 74 33 167 0 92 -3 105 -33 167
-78 160 -271 243 -452 194z m225 -110 c28 -12 64 -37 81 -54 132 -132 89 -376
-80 -453 -49 -22 -153 -25 -208 -5 -239 86 -231 453 12 527 54 16 143 10 195
-15z"/>
      <path d="M15064 8291 c-184 -47 -308 -238 -275 -423 23 -132 87 -218 206 -278
65 -33 75 -35 170 -35 90 0 106 3 159 29 182 90 259 294 184 493 -27 74 -93
143 -174 183 -57 28 -80 33 -153 36 -47 2 -100 0 -117 -5z m189 -107 c67 -23
130 -83 157 -149 27 -66 25 -177 -3 -236 -58 -118 -205 -177 -339 -137 -102
30 -178 147 -178 271 1 94 49 180 133 232 57 36 156 44 230 19z"/>
      <path d="M2710 8245 l0 -45 43 0 c23 0 73 -3 110 -7 l68 -6 -3 -314 -3 -313
53 0 52 0 0 315 0 315 105 0 105 0 0 50 0 50 -265 0 -265 0 0 -45z"/>
      <path d="M3340 8018 l5 -273 27 -47 c32 -53 83 -99 146 -130 59 -28 176 -22
246 13 63 31 130 106 144 161 7 25 13 149 14 293 l3 250 -52 3 -53 3 0 -246
c0 -199 -3 -253 -15 -283 -50 -119 -177 -152 -287 -75 -73 50 -78 72 -78 356
l0 247 -52 0 -53 0 5 -272z"/>
      <path d="M4079 8228 c0 -35 -2 -199 -3 -365 l-2 -303 53 0 53 0 0 113 0 113
34 37 c18 20 41 37 50 37 8 0 39 -35 67 -77 117 -174 175 -223 266 -223 l53 0
0 49 0 50 -33 -6 c-42 -6 -67 14 -160 130 -85 107 -117 152 -117 164 0 5 29
40 65 78 36 39 100 109 142 158 42 48 81 87 85 87 4 0 8 5 8 10 0 6 -28 10
-63 10 l-64 0 -49 -52 c-27 -29 -71 -80 -99 -112 -27 -33 -63 -73 -80 -90 -17
-17 -46 -50 -64 -73 -18 -24 -36 -43 -39 -43 -4 0 -6 35 -5 78 2 42 4 125 6
185 l3 107 -53 0 -53 0 -1 -62z"/>
      <path d="M5450 7925 l0 -367 188 4 c170 4 192 6 247 28 69 28 127 84 171 163
27 49 29 58 29 172 0 114 -2 123 -29 172 -41 74 -91 121 -166 157 -64 30 -67
31 -252 34 l-188 4 0 -367z m372 249 c221 -75 231 -400 16 -494 -42 -19 -76
-24 -170 -28 l-118 -4 0 271 0 271 113 0 c76 0 128 -5 159 -16z"/>
      <path d="M7900 7925 l0 -365 53 0 52 0 -3 146 -3 145 58 -3 58 -3 41 -79 c49
-95 83 -138 136 -177 34 -24 51 -29 100 -29 l58 0 0 48 0 48 -32 -3 c-18 -2
-44 2 -57 9 -22 12 -131 161 -131 179 0 4 17 10 38 14 94 17 162 107 162 217
0 71 -25 126 -74 163 -59 45 -113 55 -293 55 l-163 0 0 -365z m360 250 c45
-23 60 -53 60 -115 0 -62 -14 -82 -77 -114 -33 -17 -134 -21 -205 -10 l-38 7
0 123 0 124 115 0 c83 0 124 -4 145 -15z"/>
      <path d="M8795 7925 l0 -365 233 0 232 0 0 45 0 45 -185 0 -185 0 0 99 c0 55
3 106 6 115 5 14 29 16 165 16 l159 0 0 45 0 45 -87 1 c-49 0 -122 2 -163 2
l-75 2 0 109 0 108 183 -1 182 -2 0 50 0 51 -232 0 -233 0 0 -365z"/>
      <path d="M11268 7925 l2 -365 50 0 50 0 2 281 3 280 79 -113 c44 -62 133 -188
199 -280 l120 -168 49 0 48 0 0 365 0 365 -50 0 -50 0 0 -270 c0 -211 -3 -268
-12 -264 -13 5 -283 381 -346 481 l-34 53 -56 0 -57 0 3 -365z"/>
      <path d="M12033 7925 l-1 -365 166 0 c181 0 242 11 315 53 105 63 158 153 165
285 8 152 -55 276 -175 340 -77 40 -148 52 -322 52 l-146 0 -2 -365z m382 245
c107 -46 159 -128 158 -251 -2 -188 -138 -286 -364 -263 l-69 7 0 262 c0 201
3 265 13 268 28 12 220 -5 262 -23z"/>
      <path d="M12800 7925 l0 -365 238 0 238 0 -1 45 0 45 -187 0 -188 0 0 115 0
115 170 0 170 0 0 45 0 45 -169 0 -169 0 -1 113 -1 112 185 -4 185 -3 0 51 0
51 -235 0 -235 0 0 -365z"/>
      <path d="M13400 7925 l0 -365 55 0 55 0 -6 140 c-6 116 -5 140 7 141 14 1 88
1 101 0 4 -1 29 -40 55 -87 86 -154 133 -194 226 -194 l55 0 3 44 4 44 -49 6
c-58 6 -66 12 -107 79 -17 29 -40 64 -50 79 -25 36 -24 48 5 48 94 0 176 97
176 207 -1 108 -61 188 -161 211 -28 7 -122 12 -210 12 l-159 0 0 -365z m364
247 c104 -59 66 -219 -56 -237 -24 -3 -79 -5 -123 -3 l-80 3 -3 119 c-1 66 0
126 3 134 8 22 215 9 259 -16z"/>
      <path d="M14060 7926 l0 -366 56 0 55 0 -2 158 -2 157 144 -2 c79 -2 168 -3
197 -3 l52 0 0 -155 0 -155 56 0 c54 0 56 1 50 23 -3 12 -6 176 -6 365 l0 342
-50 0 -50 0 0 -160 0 -160 -195 0 c-179 0 -195 1 -196 18 -1 9 -2 80 -3 157
l-1 140 -52 3 -53 3 0 -365z"/>
      <path d="M15648 8133 c6 -374 6 -385 29 -428 30 -57 76 -100 139 -131 49 -24
63 -26 138 -22 74 4 91 8 140 38 116 71 136 138 136 468 l0 232 -52 0 -53 0 3
-183 c6 -317 -12 -389 -112 -443 -39 -22 -56 -25 -92 -20 -62 8 -115 38 -144
82 -25 37 -25 39 -28 301 l-3 263 -52 0 -52 0 3 -157z"/>
      <path d="M16380 7926 l0 -366 169 0 c200 0 268 16 350 80 97 77 136 171 129
310 -8 147 -71 240 -207 303 -63 30 -69 31 -253 35 l-188 5 0 -367z m386 245
c58 -27 109 -75 136 -129 18 -37 22 -63 22 -122 -1 -87 -23 -140 -81 -195 -52
-49 -110 -66 -240 -72 l-113 -6 0 272 0 271 118 0 c92 0 126 -4 158 -19z"/>
    </g>
  </g>
</svg>
